<?xml version="1.0" encoding="utf-8"?>
<!-- Generator: Adobe Illustrator 22.1.0, SVG Export Plug-In . SVG Version: 6.00 Build 0)  -->
<svg version="1.1" id="_x32_" xmlns="http://www.w3.org/2000/svg" xmlns:xlink="http://www.w3.org/1999/xlink" x="0px" y="0px"
	 viewBox="0 0 512 512" style="enable-background:new 0 0 512 512;" xml:space="preserve">
<style type="text/css">
	.st0{fill:#FFFFFF;}
</style>
<g>
	<path class="st0" d="M454,324.1V187.9c16.9-5.2,29.2-20.7,29.2-39.3c0-22.8-18.5-41.3-41.3-41.3c-10.9,0-20.7,4.3-28.1,11.2
		l-117.8-68c0.7-3,1.1-6.1,1.1-9.3C297.3,18.5,278.8,0,256,0s-41.3,18.5-41.3,41.3c0,3.2,0.4,6.3,1.1,9.3l-117.8,68
		c-7.4-6.9-17.2-11.2-28.1-11.2c-22.8,0-41.3,18.5-41.3,41.3c0,18.6,12.4,34.1,29.2,39.3v136.2c-16.9,5.2-29.2,20.7-29.2,39.3
		c0,22.8,18.5,41.3,41.3,41.3c10.9,0,20.7-4.3,28.1-11.2l117.8,68c-0.7,3-1.1,6.1-1.1,9.3c0,22.8,18.5,41.3,41.3,41.3
		s41.3-18.5,41.3-41.3c0-3.2-0.4-6.3-1.1-9.3l117.8-68c7.4,6.9,17.2,11.2,28.1,11.2c22.8,0,41.3-18.5,41.3-41.3
		C483.2,344.8,470.9,329.3,454,324.1z M244,431.5c-6.1,1.9-11.5,5-16,9.2l-117.8-68c0.7-3,1.1-6.1,1.1-9.3
		c0-18.6-12.4-34.1-29.2-39.3V187.9c6.1-1.9,11.5-5,16-9.2l117.8,68c-0.7,3-1.1,6.1-1.1,9.3c0,18.6,12.4,34.1,29.2,39.3L244,431.5
		L244,431.5z M227.9,225.9l-117.8-68c0.7-3,1.1-6.1,1.1-9.3c0-3.2-0.4-6.3-1.1-9.3l117.8-68c7.4,6.9,17.2,11.2,28.1,11.2
		s20.7-4.3,28.1-11.2l117.8,68c-0.7,3-1.1,6.1-1.1,9.3c0,3.2,0.4,6.3,1.1,9.3l-117.8,68c-7.4-6.9-17.2-11.2-28.1-11.2
		S235.3,219,227.9,225.9z M429.9,324.1c-16.9,5.2-29.2,20.7-29.2,39.3c0,3.2,0.4,6.3,1.1,9.3l-117.8,68c-4.5-4.2-10-7.3-16-9.2
		V295.3c16.9-5.2,29.2-20.7,29.2-39.3c0-3.2-0.4-6.3-1.1-9.3l117.8-68c4.5,4.2,10,7.3,16,9.2L429.9,324.1L429.9,324.1z"/>
</g>
</svg>
